<svg xmlns="http://www.w3.org/2000/svg" viewBox="0 0 200.58 52"><defs><style>.cls-1{isolation:isolate;}.cls-2{fill:#fff;}.cls-3{fill:#006fff;}</style></defs><title>Asset 1</title><g id="Layer_2" data-name="Layer 2"><g id="Layer_1-2" data-name="Layer 1"><g class="cls-1"><g class="cls-1"><path class="cls-2" d="M1.9,51.43A6.84,6.84,0,0,1,1,50.6a4.12,4.12,0,0,1-.7-1,2.3,2.3,0,0,1-.26-1V32.45s2.25,1.42,6.76,4.37v7.44l.31.47h5V30.89L1,22.83a3.14,3.14,0,0,1-.68-1A2.8,2.8,0,0,1,0,20.7V3.54A2.59,2.59,0,0,1,.34,2.29a4.21,4.21,0,0,1,.88-1.12A5.24,5.24,0,0,1,2.39.36,2.77,2.77,0,0,1,3.64.05H15.7a2.15,2.15,0,0,1,1.07.31,4.42,4.42,0,0,1,1,.81,5.1,5.1,0,0,1,.78,1.07,2.21,2.21,0,0,1,.31,1v8.37L12.12,15.7V7.38H7.28l-.42.36v9.46a.64.64,0,0,0,.16.36,2.87,2.87,0,0,0,.26.31l9.93,7.28a10.5,10.5,0,0,1,1.07,1.14,2.3,2.3,0,0,1,.6,1.46V49a2,2,0,0,1-.31,1,4.17,4.17,0,0,1-.81,1,4.37,4.37,0,0,1-1,.7,2.37,2.37,0,0,1-1,.26L2.86,51.95A3.51,3.51,0,0,1,1.9,51.43Z"/><path class="cls-2" d="M24.08,7.44V0h18.3V7.44H36.76V52h-7V7.44Z"/><path class="cls-2" d="M54.18,0H66l6.6,52H65.1l-1.25-9.1H56.32L55.12,52H47.58Zm8.74,35.31L60.11,13.83H60L57.25,35.31Z"/><path class="cls-2" d="M77.79,7.44V0H96.1V7.44H90.48V52h-7V7.44Z"/><path class="cls-2" d="M108.89,36.45V41.6a1.43,1.43,0,0,0,.68,1.09,2.11,2.11,0,0,0,1.25.52,2.54,2.54,0,0,0,1.3-.36,1.18,1.18,0,0,0,.62-1.09v-9.1l-.57-.52-9.93-5.25a1.49,1.49,0,0,1-.49-.55,4,4,0,0,1-.29-.65V23.11q0-1.69,0-3.72t0-4.26q0-2.24,0-4.24t0-3.64V4.78q0-.68,0-1.51a5.65,5.65,0,0,1,.16-1.56,2.68,2.68,0,0,1,.65-1.22A1.92,1.92,0,0,1,103.58,0h14.3a2.48,2.48,0,0,1,1.51.55A1.71,1.71,0,0,1,120.12,2v9.93l-7.18,4.68V9.1a1,1,0,0,0-.7-1A3.7,3.7,0,0,0,111,7.85a3.1,3.1,0,0,0-1.4.34,1.24,1.24,0,0,0-.68,1.22V20.23a1.14,1.14,0,0,0,.21.55c.14.23.26.36.36.39l9.72,4.89a1.51,1.51,0,0,1,.52.34.94.94,0,0,1,.42.7v23a1.64,1.64,0,0,1-.73,1.4,2.56,2.56,0,0,1-1.51.52h-14.3a2.85,2.85,0,0,1-1.35-.44,1.32,1.32,0,0,1-.78-1.17V32.5Z"/></g></g><g class="cls-1"><g class="cls-1"><path class="cls-3" d="M131.73,0h11.8l6.19,52h-7l-1-7.9H133.5l-.94,7.9h-7Zm9.15,36.4-3.28-26.1-3.12,26.1Z"/><path class="cls-3" d="M172.19,0a2.08,2.08,0,0,1,1.87,1.14,12.52,12.52,0,0,1,1.09,2.39V18.15a4.72,4.72,0,0,1-.34,1.74,8.83,8.83,0,0,1-.86,1.64,7.79,7.79,0,0,1-1.2,1.4,17,17,0,0,1-1.3,1.09l-9.52,6.92V52h-7V0ZM162,22.2q.26-.21,1-.7l1.48-1,1.48-1,1-.62c.07-.07.24-.22.52-.44s.42-.39.42-.49V7.44H162Z"/><path class="cls-3" d="M197.61,0a2.08,2.08,0,0,1,1.87,1.14,12.52,12.52,0,0,1,1.09,2.39V18.15a4.72,4.72,0,0,1-.34,1.74,8.83,8.83,0,0,1-.86,1.64,7.79,7.79,0,0,1-1.2,1.4,17,17,0,0,1-1.3,1.09l-9.52,6.92V52h-7V0ZM187.42,22.2q.26-.21,1-.7l1.48-1,1.48-1,1-.62c.07-.07.24-.22.52-.44s.42-.39.42-.49V7.44h-5.82Z"/></g></g></g></g></svg>