<svg xmlns="http://www.w3.org/2000/svg" width="22.5" height="24" viewBox="0 0 22.5 24"><path d="M48.5,0H35a3,3,0,0,0-3,3V21a3,3,0,0,0,3,3H48.5a3,3,0,0,0,3-3V3A3,3,0,0,0,48.5,0ZM41.75,6a3,3,0,1,1-3,3A3,3,0,0,1,41.75,6Zm4.5,12h-9a.752.752,0,0,1-.75-.75,3.749,3.749,0,0,1,3.75-3.75h3A3.75,3.75,0,0,1,47,17.25.752.752,0,0,1,46.25,18Zm7.5-15H53V7.5h.75a.752.752,0,0,0,.75-.75v-3A.751.751,0,0,0,53.75,3Zm0,6H53v4.5h.75a.752.752,0,0,0,.75-.75v-3A.752.752,0,0,0,53.75,9Zm0,6H53v4.5h.75a.75.75,0,0,0,.75-.75v-3A.752.752,0,0,0,53.75,15Z" transform="translate(-32)" fill="#fff"/></svg>