<svg xmlns="http://www.w3.org/2000/svg" width="21" height="24" viewBox="0 0 21 24"><path d="M7.5,1.5V3h6V1.5a1.5,1.5,0,0,1,3,0V3h2.25A2.25,2.25,0,0,1,21,5.25V7.5H0V5.25A2.25,2.25,0,0,1,2.25,3H4.5V1.5a1.5,1.5,0,0,1,3,0ZM0,9H21V21.75A2.251,2.251,0,0,1,18.75,24H2.25A2.25,2.25,0,0,1,0,21.75Zm3,5.25a.751.751,0,0,0,.75.75h1.5A.752.752,0,0,0,6,14.25v-1.5A.752.752,0,0,0,5.25,12H3.75a.751.751,0,0,0-.75.75Zm6,0a.752.752,0,0,0,.75.75h1.5a.752.752,0,0,0,.75-.75v-1.5a.752.752,0,0,0-.75-.75H9.75a.752.752,0,0,0-.75.75ZM15.75,12a.752.752,0,0,0-.75.75v1.5a.752.752,0,0,0,.75.75h1.5a.752.752,0,0,0,.75-.75v-1.5a.752.752,0,0,0-.75-.75ZM3,20.25a.751.751,0,0,0,.75.75h1.5A.752.752,0,0,0,6,20.25v-1.5A.752.752,0,0,0,5.25,18H3.75a.751.751,0,0,0-.75.75ZM9.75,18a.752.752,0,0,0-.75.75v1.5a.752.752,0,0,0,.75.75h1.5a.752.752,0,0,0,.75-.75v-1.5a.752.752,0,0,0-.75-.75ZM15,20.25a.752.752,0,0,0,.75.75h1.5a.752.752,0,0,0,.75-.75v-1.5a.752.752,0,0,0-.75-.75h-1.5a.752.752,0,0,0-.75.75Z" fill="#fff"/></svg>