<svg xmlns="http://www.w3.org/2000/svg" width="24" height="20.129" viewBox="0 0 24 20.129"><path d="M19.484,48a1.16,1.16,0,0,1,1.161,1.161v2.323a1.159,1.159,0,0,1-1.161,1.161H17.161A1.16,1.16,0,0,1,16,51.484V49.161A1.162,1.162,0,0,1,17.161,48Zm18.968.774a1.548,1.548,0,1,1,0,3.1H24.516a1.548,1.548,0,1,1,0-3.1Zm0,7.742a1.548,1.548,0,1,1,0,3.1H24.516a1.548,1.548,0,1,1,0-3.1Zm0,7.742a1.548,1.548,0,1,1,0,3.1H24.516a1.548,1.548,0,1,1,0-3.1ZM16,56.9a1.16,1.16,0,0,1,1.161-1.161h2.323A1.159,1.159,0,0,1,20.645,56.9v2.323a1.159,1.159,0,0,1-1.161,1.161H17.161A1.16,1.16,0,0,1,16,59.226Zm3.484,6.581a1.159,1.159,0,0,1,1.161,1.161v2.323a1.159,1.159,0,0,1-1.161,1.161H17.161A1.16,1.16,0,0,1,16,66.968V64.645a1.16,1.16,0,0,1,1.161-1.161Z" transform="translate(-16 -48)" fill="#fff"/></svg>