<svg xmlns="http://www.w3.org/2000/svg" width="162" height="173.567" viewBox="0 0 162 173.567"><path d="M142.138,165.966A80.573,80.573,0,0,0,162,112.995C162,68.339,125.661,32,81.331,32S0,68.339,0,112.995s36.339,80.995,80.669,80.995a80.456,80.456,0,0,0,43.643-12.865l16.9,20.278a11.541,11.541,0,0,0,8.891,4.165c7.72,0,11.563-6.6,11.563-11.574a11.522,11.522,0,0,0-2.683-7.4Zm-61.144,4.881a57.691,57.691,0,1,1,0-115.381c31.9,0,57.853,25.954,57.853,57.528a57.273,57.273,0,0,1-11.9,34.755l-25.484-30.6a11.561,11.561,0,0,0-8.9-4.169c-7.691,0-11.556,6.588-11.556,11.578a11.522,11.522,0,0,0,2.683,7.4L109.552,163A57.244,57.244,0,0,1,80.995,170.848Z" transform="translate(0 -32)" fill="#fff"/></svg>