<svg xmlns="http://www.w3.org/2000/svg" width="24" height="24.001" viewBox="0 0 24 24.001"><path d="M23.222,6.919a2.65,2.65,0,0,1,0,3.751L21.8,12.1,17.16,7.456l1.426-1.424a2.652,2.652,0,0,1,3.751,0ZM8.165,16.454l7.924-7.927,4.642,4.64L12.8,21.09a2.627,2.627,0,0,1-1.037.644l-4.206,1.4a1.068,1.068,0,0,1-1.165-.317A1.059,1.059,0,0,1,6.119,21.7l1.4-4.206a2.627,2.627,0,0,1,.644-1.037Zm.928-8.459A1.543,1.543,0,0,1,10.609,9.51a1.488,1.488,0,0,1-1.516,1.516H4.547a1.543,1.543,0,0,0-1.516,1.516V24.709a1.515,1.515,0,0,0,1.516,1.516H16.672a1.514,1.514,0,0,0,1.516-1.516V20.12a1.516,1.516,0,0,1,3.031,0v4.589a4.548,4.548,0,0,1-4.547,4.547H4.547A4.547,4.547,0,0,1,0,24.709V12.541A4.547,4.547,0,0,1,4.547,7.995Z" transform="translate(0 -5.255)" fill="#fff"/></svg>